<svg width="180" height="60" viewBox="0 0 180 60" fill="none" xmlns="http://www.w3.org/2000/svg">
<path d="M3.33391 46V12.7548H17.0452C18.6104 12.7548 20.16 12.9113 21.6939 13.2243C23.2591 13.5061 24.6835 14.0383 25.967 14.8209C27.2504 15.6035 28.2678 16.7148 29.0191 18.1548C29.8017 19.5635 30.193 21.3791 30.193 23.6017C30.193 25.1043 29.9426 26.4974 29.4417 27.7809C28.9409 29.0643 28.1896 30.1757 27.1878 31.1148C26.2174 32.0539 24.9809 32.7896 23.4783 33.3217L31.0383 46H22.3983L15.9652 34.5426H10.9409V46H3.33391ZM10.9409 27.8278H16.8104C17.7183 27.8278 18.5165 27.7496 19.2052 27.593C19.9252 27.4052 20.5357 27.1548 21.0365 26.8417C21.5374 26.4974 21.913 26.0591 22.1635 25.527C22.4452 24.9948 22.6017 24.353 22.633 23.6017C22.633 22.5687 22.3826 21.7861 21.8817 21.2539C21.4122 20.7217 20.7704 20.3461 19.9565 20.127C19.1426 19.9078 18.2035 19.7983 17.1391 19.7983H10.9409V27.8278ZM45.3802 46.3757C42.8132 46.3757 40.5906 45.8591 38.7124 44.8261C36.8654 43.793 35.441 42.3374 34.4393 40.4591C33.4376 38.5496 32.9367 36.3113 32.9367 33.7443C32.9367 31.1774 33.4532 28.9235 34.4863 26.9826C35.5193 25.0417 36.9593 23.5235 38.8063 22.4278C40.6845 21.3322 42.8915 20.7843 45.4271 20.7843C47.2741 20.7843 48.9019 21.0817 50.3106 21.6765C51.7506 22.2713 52.9715 23.1165 53.9732 24.2122C55.0063 25.3078 55.7732 26.607 56.2741 28.1096C56.8063 29.6122 57.0724 31.2557 57.0724 33.04C57.041 33.5096 57.0097 33.9791 56.9784 34.4487C56.9471 34.887 56.8689 35.3409 56.7437 35.8104H40.3089C40.4028 36.593 40.6376 37.313 41.0132 37.9704C41.3889 38.6278 41.921 39.1443 42.6097 39.52C43.2984 39.8957 44.175 40.0835 45.2393 40.0835C45.9906 40.0835 46.6637 40.0052 47.2584 39.8487C47.8845 39.6609 48.401 39.4104 48.808 39.0974C49.215 38.753 49.481 38.3774 49.6063 37.9704H56.9315C56.5245 39.9426 55.7419 41.5548 54.5837 42.807C53.4254 44.0278 52.048 44.9357 50.4515 45.5304C48.855 46.0939 47.1645 46.3757 45.3802 46.3757ZM40.4497 30.7861H49.9819C49.9819 30.1287 49.8097 29.487 49.4654 28.8609C49.1524 28.2348 48.6515 27.7339 47.9628 27.3583C47.2741 26.9513 46.3819 26.7478 45.2863 26.7478C44.2219 26.7478 43.3297 26.9513 42.6097 27.3583C41.8897 27.7652 41.3576 28.2817 41.0132 28.9078C40.6689 29.5339 40.481 30.16 40.4497 30.7861ZM67.7876 46.3757C66.6294 46.3757 65.5337 46.2191 64.5007 45.9061C63.4676 45.593 62.5441 45.1235 61.7302 44.4974C60.9163 43.8713 60.2746 43.0887 59.805 42.1496C59.3354 41.2104 59.1007 40.1148 59.1007 38.8626C59.1007 37.0783 59.4607 35.6696 60.1807 34.6365C60.932 33.5722 61.9337 32.7896 63.1859 32.2887C64.4694 31.7565 65.925 31.4122 67.5528 31.2557C69.1807 31.0991 70.8711 31.0209 72.6241 31.0209H74.972C74.972 30.2383 74.8154 29.5652 74.5024 29.0017C74.2207 28.407 73.7824 27.9374 73.1876 27.593C72.5928 27.2487 71.8572 27.0765 70.9807 27.0765C70.3546 27.0765 69.7598 27.1704 69.1963 27.3583C68.6641 27.5148 68.2102 27.7496 67.8346 28.0626C67.4902 28.3443 67.2554 28.7043 67.1302 29.1426H59.6641C59.8833 27.6713 60.3372 26.4191 61.0259 25.3861C61.7459 24.3217 62.6224 23.4609 63.6554 22.8035C64.7198 22.1461 65.9094 21.6609 67.2241 21.3478C68.5389 21.0035 69.885 20.8313 71.2624 20.8313C74.8937 20.8313 77.6015 21.8487 79.3859 23.8835C81.1702 25.9183 82.0624 28.8609 82.0624 32.7113V46H75.2537L75.2067 42.76C74.4241 43.9496 73.532 44.7948 72.5302 45.2957C71.5285 45.7965 70.5894 46.0939 69.7128 46.1878C68.8363 46.313 68.1946 46.3757 67.7876 46.3757ZM69.6659 40.6C70.605 40.6 71.4815 40.3965 72.2954 39.9896C73.1094 39.5513 73.7667 39.0035 74.2676 38.3461C74.7998 37.6574 75.0659 36.9217 75.0659 36.1391V35.7635H70.4641C69.9633 35.7635 69.4624 35.7948 68.9615 35.8574C68.492 35.92 68.0694 36.0452 67.6937 36.233C67.318 36.3896 67.0207 36.6243 66.8015 36.9374C66.5824 37.2504 66.4728 37.6574 66.4728 38.1583C66.4728 38.6904 66.6137 39.1443 66.8954 39.52C67.1772 39.8643 67.5528 40.1304 68.0224 40.3183C68.5233 40.5061 69.0711 40.6 69.6659 40.6ZM96.1618 46.3757C93.6262 46.3757 91.5288 45.7965 89.8697 44.6383C88.2105 43.4487 86.974 41.8991 86.1601 39.9896C85.3462 38.0487 84.9392 35.92 84.9392 33.6035C84.9392 31.0991 85.3931 28.8922 86.301 26.9826C87.2088 25.0417 88.5392 23.5235 90.2923 22.4278C92.0453 21.3322 94.2053 20.7843 96.7723 20.7843C97.6488 20.7843 98.4784 20.8783 99.261 21.0661C100.075 21.2539 100.826 21.5356 101.515 21.9113C102.235 22.2556 102.83 22.7096 103.299 23.273V12.7548H110.765V46H103.487V43.5113C102.892 44.1687 102.204 44.7009 101.421 45.1078C100.67 45.5148 99.8557 45.8278 98.9792 46.047C98.1027 46.2661 97.1636 46.3757 96.1618 46.3757ZM97.7584 39.6139C99.0731 39.6139 100.137 39.3322 100.951 38.7687C101.765 38.1739 102.36 37.4226 102.736 36.5148C103.143 35.5757 103.346 34.6052 103.346 33.6035C103.346 32.5391 103.143 31.553 102.736 30.6452C102.36 29.7374 101.765 29.0017 100.951 28.4383C100.137 27.8748 99.0731 27.593 97.7584 27.593C96.4123 27.593 95.3323 27.9061 94.5184 28.5322C93.7357 29.127 93.1723 29.8939 92.8279 30.833C92.5149 31.7722 92.3583 32.7426 92.3583 33.7443C92.3583 34.4957 92.4523 35.2313 92.6401 35.9513C92.8279 36.64 93.1253 37.2661 93.5323 37.8296C93.9705 38.3617 94.534 38.8 95.2227 39.1443C95.9114 39.4574 96.7566 39.6139 97.7584 39.6139ZM125.596 57.5513C123.686 57.5513 121.808 57.3009 119.961 56.8C118.145 56.2991 116.408 55.4852 114.749 54.3583L117.097 48.3478C118.036 49.0365 119.116 49.5843 120.337 49.9913C121.589 50.3983 123.013 50.6017 124.61 50.6017C126.958 50.6017 128.726 50.1009 129.916 49.0991C131.105 48.0974 131.7 46.5635 131.7 44.4974V43.7461C131.168 44.4035 130.511 44.92 129.728 45.2957C128.945 45.6713 128.132 45.9374 127.286 46.0939C126.441 46.2817 125.596 46.3757 124.751 46.3757C122.372 46.3757 120.462 45.8748 119.022 44.873C117.582 43.8713 116.533 42.4939 115.876 40.7409C115.218 38.9878 114.89 37.0157 114.89 34.8243V21.2539H122.262V33.3687C122.262 34.0574 122.309 34.7617 122.403 35.4817C122.497 36.2017 122.7 36.8904 123.013 37.5478C123.326 38.1739 123.796 38.6904 124.422 39.0974C125.079 39.473 125.925 39.6609 126.958 39.6609C128.366 39.6609 129.399 39.3165 130.057 38.6278C130.714 37.9391 131.137 37.0939 131.325 36.0922C131.512 35.0591 131.606 34.0261 131.606 32.993V21.2539H139.072V41.2574C139.072 43.6678 138.869 45.8591 138.462 47.8313C138.055 49.8348 137.351 51.5565 136.349 52.9965C135.347 54.4365 133.97 55.5478 132.217 56.3304C130.464 57.1443 128.257 57.5513 125.596 57.5513Z" fill="url(#paint0_linear_2_17629)"/>
<rect x="145.913" y="13.1304" width="33.8261" height="33.7391" rx="9.13043" fill="#1C1C1E" style="fill:#1C1C1E;fill:color(display-p3 0.1098 0.1098 0.1176);fill-opacity:1;"/>
<path d="M156.769 41.2504C155.996 41.2504 155.266 41.1461 154.577 40.9374C153.889 40.7287 153.273 40.4157 152.73 39.9983C152.188 39.5809 151.76 39.0591 151.447 38.433C151.134 37.807 150.977 37.0765 150.977 36.2417C150.977 35.0522 151.217 34.113 151.697 33.4243C152.198 32.7148 152.866 32.193 153.701 31.8591C154.556 31.5043 155.527 31.2748 156.612 31.1704C157.697 31.0661 158.824 31.0139 159.993 31.0139H161.558C161.558 30.4922 161.454 30.0435 161.245 29.6678C161.057 29.2713 160.765 28.9583 160.369 28.7287C159.972 28.4991 159.482 28.3843 158.897 28.3843C158.48 28.3843 158.083 28.447 157.708 28.5722C157.353 28.6765 157.05 28.833 156.8 29.0417C156.57 29.2296 156.414 29.4696 156.33 29.7617H151.353C151.499 28.7809 151.802 27.9461 152.261 27.2574C152.741 26.5478 153.325 25.9739 154.014 25.5357C154.723 25.0974 155.516 24.7739 156.393 24.5652C157.269 24.3357 158.167 24.2209 159.085 24.2209C161.506 24.2209 163.311 24.8991 164.501 26.2557C165.69 27.6122 166.285 29.5739 166.285 32.1409V41H161.746L161.715 38.84C161.193 39.633 160.598 40.1965 159.93 40.5304C159.262 40.8643 158.636 41.0626 158.052 41.1252C157.468 41.2087 157.04 41.2504 156.769 41.2504ZM158.021 37.4C158.647 37.4 159.231 37.2643 159.774 36.993C160.316 36.7009 160.755 36.3357 161.089 35.8974C161.443 35.4383 161.621 34.9478 161.621 34.4261V34.1757H158.553C158.219 34.1757 157.885 34.1965 157.551 34.2383C157.238 34.28 156.956 34.3635 156.706 34.4887C156.456 34.593 156.257 34.7496 156.111 34.9583C155.965 35.167 155.892 35.4383 155.892 35.7722C155.892 36.127 155.986 36.4296 156.174 36.68C156.362 36.9096 156.612 37.087 156.925 37.2122C157.259 37.3374 157.624 37.4 158.021 37.4ZM169.142 41V24.5026H174.119V41H169.142ZM171.646 23.1252C170.728 23.1252 169.987 22.8539 169.424 22.3113C168.881 21.7687 168.61 21.0591 168.61 20.1826C168.61 19.2852 168.902 18.5548 169.486 17.9913C170.071 17.4278 170.801 17.1461 171.678 17.1461C172.513 17.1461 173.222 17.4174 173.806 17.96C174.391 18.5026 174.683 19.233 174.683 20.1513C174.683 21.0487 174.401 21.7687 173.838 22.3113C173.274 22.8539 172.544 23.1252 171.646 23.1252Z" fill="white" style="fill:white;fill-opacity:1;"/>
<defs>
<linearGradient id="paint0_linear_2_17629" x1="71" y1="0" x2="71" y2="60" gradientUnits="userSpaceOnUse">
<stop stop-color="#FF7800" style="stop-color:#FF7800;stop-color:color(display-p3 1.0000 0.4706 0.0000);stop-opacity:1;"/>
<stop offset="1" stop-color="#FF5000" style="stop-color:#FF5000;stop-color:color(display-p3 1.0000 0.3137 0.0000);stop-opacity:1;"/>
</linearGradient>
</defs>
</svg>
